<mxfile host="Electron" modified="2023-09-10T19:50:35.136Z" agent="Mozilla/5.0 (Windows NT 10.0; Win64; x64) AppleWebKit/537.36 (KHTML, like Gecko) draw.io/21.6.8 Chrome/114.0.5735.289 Electron/25.5.0 Safari/537.36" etag="Urtj4FxqEuI4zxW5WvOJ" version="21.6.8" type="device">
  <diagram name="Página-1" id="CWpFlFNf6NjzpA8AwAwf">
    <mxGraphModel dx="1418" dy="827" grid="1" gridSize="10" guides="1" tooltips="1" connect="1" arrows="1" fold="1" page="1" pageScale="1" pageWidth="827" pageHeight="1169" math="0" shadow="0">
      <root>
        <mxCell id="0" />
        <mxCell id="1" parent="0" />
        <mxCell id="fYTuYtU2oD-ZwLKHd4pm-2" value="Sistema" style="verticalAlign=top;align=left;spacingTop=8;spacingLeft=2;spacingRight=12;shape=cube;size=10;direction=south;fontStyle=4;html=1;whiteSpace=wrap;" parent="1" vertex="1">
          <mxGeometry x="189" y="225" width="450" height="460" as="geometry" />
        </mxCell>
        <mxCell id="fYTuYtU2oD-ZwLKHd4pm-11" style="edgeStyle=orthogonalEdgeStyle;rounded=0;orthogonalLoop=1;jettySize=auto;html=1;entryX=0;entryY=0.5;entryDx=0;entryDy=0;" parent="1" source="fYTuYtU2oD-ZwLKHd4pm-1" target="fYTuYtU2oD-ZwLKHd4pm-3" edge="1">
          <mxGeometry relative="1" as="geometry" />
        </mxCell>
        <mxCell id="fYTuYtU2oD-ZwLKHd4pm-1" value="Paciente" style="shape=umlActor;verticalLabelPosition=bottom;verticalAlign=top;html=1;" parent="1" vertex="1">
          <mxGeometry x="80" y="295" width="30" height="60" as="geometry" />
        </mxCell>
        <mxCell id="fYTuYtU2oD-ZwLKHd4pm-3" value="Visualizar anuncios informativos" style="ellipse;whiteSpace=wrap;html=1;" parent="1" vertex="1">
          <mxGeometry x="220" y="290" width="140" height="70" as="geometry" />
        </mxCell>
        <mxCell id="fYTuYtU2oD-ZwLKHd4pm-4" value="" style="endArrow=block;dashed=1;endFill=0;endSize=12;html=1;rounded=0;exitX=1;exitY=0.5;exitDx=0;exitDy=0;" parent="1" source="fYTuYtU2oD-ZwLKHd4pm-3" target="fYTuYtU2oD-ZwLKHd4pm-5" edge="1">
          <mxGeometry width="160" relative="1" as="geometry">
            <mxPoint x="390" y="350" as="sourcePoint" />
            <mxPoint x="700" y="410" as="targetPoint" />
          </mxGeometry>
        </mxCell>
        <mxCell id="fYTuYtU2oD-ZwLKHd4pm-6" value="&amp;lt;Include&amp;gt;" style="edgeLabel;html=1;align=center;verticalAlign=middle;resizable=0;points=[];" parent="fYTuYtU2oD-ZwLKHd4pm-4" vertex="1" connectable="0">
          <mxGeometry x="0.211" relative="1" as="geometry">
            <mxPoint as="offset" />
          </mxGeometry>
        </mxCell>
        <mxCell id="fYTuYtU2oD-ZwLKHd4pm-10" value="" style="edgeStyle=orthogonalEdgeStyle;rounded=0;orthogonalLoop=1;jettySize=auto;html=1;" parent="1" source="fYTuYtU2oD-ZwLKHd4pm-5" target="fYTuYtU2oD-ZwLKHd4pm-9" edge="1">
          <mxGeometry relative="1" as="geometry" />
        </mxCell>
        <mxCell id="fYTuYtU2oD-ZwLKHd4pm-5" value="Gestión de anuncios informativos" style="ellipse;whiteSpace=wrap;html=1;" parent="1" vertex="1">
          <mxGeometry x="344" y="420" width="140" height="70" as="geometry" />
        </mxCell>
        <mxCell id="fYTuYtU2oD-ZwLKHd4pm-9" value="Base de datos de anuncios informativos" style="ellipse;whiteSpace=wrap;html=1;" parent="1" vertex="1">
          <mxGeometry x="430" y="570" width="140" height="70" as="geometry" />
        </mxCell>
      </root>
    </mxGraphModel>
  </diagram>
</mxfile>
